<svg xmlns="http://www.w3.org/2000/svg" xmlns:xlink="http://www.w3.org/1999/xlink" version="1.1" x="0px" y="0px" viewBox="0 0 96 96" enable-background="new 0 0 96 96" xml:space="preserve"><path d="M74.279,13.668c-1.768-1.332-4.275-0.972-5.6,0.784c-1.328,1.764-0.976,4.272,0.788,5.6  c9.101,6.852,14.32,17.268,14.32,28.584c0,19.74-16.056,35.788-35.792,35.788c-19.74,0-35.796-16.056-35.796-35.788  c0-11.36,5.22-21.8,14.324-28.652c1.764-1.328,2.116-3.836,0.788-5.6c-1.328-1.752-3.832-2.116-5.6-0.784  C10.748,21.852,4.204,34.952,4.204,48.645c0,24.147,19.648,43.795,43.796,43.795c24.148,0,43.796-19.647,43.796-43.795  C91.788,34.796,85.416,22.044,74.279,13.668L74.279,13.668z"></path><path d="M48.36,43.564c2.208,0,4-1.788,4-4v-32c0-2.208-1.791-4-4-4c-2.208,0-4,1.792-4,4v32  C44.36,41.776,46.152,43.564,48.36,43.564z"></path></svg>